<?xml version="1.0" encoding="utf-8"?>
<!-- Svg Vector Icons : http://www.onlinewebfonts.com/icon -->
<!DOCTYPE svg PUBLIC "-//W3C//DTD SVG 1.1//EN" "http://www.w3.org/Graphics/SVG/1.1/DTD/svg11.dtd">
<svg version="1.1" xmlns="http://www.w3.org/2000/svg" xmlns:xlink="http://www.w3.org/1999/xlink" x="0px" y="0px" viewBox="0 0 1000 1000" enable-background="new 0 0 1000 1000" xml:space="preserve">
<metadata> Svg Vector Icons : http://www.onlinewebfonts.com/icon </metadata>
<g><g transform="translate(0.000000,511.000000) scale(0.100000,-0.100000)"><path d="M649.8,4416.9c-6.4-6.4-2.1-46.9,8.5-89.5c12.8-42.6,17-159.8,12.8-259.9c-6.4-140.6-23.4-208.8-68.2-304.7c-74.6-155.5-245-328.1-392-396.3c-102.3-49-136.4-89.5-91.6-117.2c8.5-6.4,78.8,0,151.3,12.8c349.4,61.8,735.1-134.2,886.3-451.7c66-134.2,68.2-136.4,110.8-108.7c23.4,12.8,23.4,42.6,2.1,155.5c-66.1,353.7,130,737.2,458.1,897c93.7,46.9,112.9,63.9,104.4,100.1c-8.5,34.1-21.3,40.5-57.5,27.7c-23.4-8.5-140.6-17-257.8-17c-198.1,0-223.7,4.3-355.8,70.3c-164.1,81-332.4,249.3-392,396.3C732.9,4421.2,686,4453.1,649.8,4416.9z"/><path d="M2569.5,4329.6c-2.1-10.7-4.3-147-6.4-304.7c-2.1-255.7-8.5-306.8-61.8-453.8c-110.8-315.4-274.9-522-562.5-709.5c-274.8-179-249.3-208.8,174.7-210.9c328.1-2.1,411.2-23.5,677.5-164.1c164.1-87.3,387.8-306.8,483.7-475.1c81-144.9,95.9-157.7,149.1-144.9c57.5,14.9,63.9,49,40.5,210.9c-21.3,157.7,4.3,415.5,55.4,564.6c106.5,298.3,328.1,571,592.3,724.4c140.6,83.1,179,142.8,117.2,181.1c-14.9,8.5-159.8,17-326,17c-266.3,2.1-313.2,8.5-451.7,57.5C3149,3733,2904,3937.5,2746.3,4212.4c-59.7,100.1-89.5,132.1-125.7,132.1C2592.9,4344.5,2569.5,4338.1,2569.5,4329.6z"/><path d="M901.2,2580.3c-32-6.4-36.2-21.3-25.6-85.2c34.1-187.5,38.4-300.4,14.9-413.3c-59.7-281.3-251.4-534.8-490-649.8c-127.8-59.6-144.9-78.8-112.9-127.8c12.8-21.3,36.2-21.3,100.1-4.3c46.9,12.8,166.2,19.2,266.3,14.9c147-6.4,208.8-21.3,326-74.6c187.5-89.5,360.1-253.6,443.2-421.9c53.3-110.8,72.4-132.1,108.7-121.5c34.1,8.5,40.5,21.3,29.8,66c-29.8,125.7-38.4,343-14.9,447.4c57.5,268.5,249.3,519.9,483.7,632.8c70.3,32,127.8,59.6,130,61.8c2.1,0,0,23.4-8.5,51.1c-8.5,32-21.3,42.6-46.9,34.1c-81-34.1-279.1-46.9-406.9-29.8c-294,42.6-566.7,238.6-694.6,498.6C956.6,2559,933.2,2586.7,901.2,2580.3z"/><path d="M4734.2,1105.9C2652.6,952.5,1026.9,51.3,694.6-1137.6c-61.8-221.6-68.2-590.2-10.6-803.2c104.4-389.9,357.9-771.3,715.9-1080.2c681.8-590.2,1655.5-975.8,2897.6-1150.5c379.2-53.3,1551.1-53.3,1949.5,0c1282.6,172.6,2333,607.2,2991.4,1242.1c330.3,315.3,528.4,637.1,622.1,1009.9c38.4,151.3,44.7,221.6,36.2,436.8c-12.8,313.2-78.8,526.3-238.6,790.4c-294,483.7-722.2,845.9-1387,1169.7c-652,319.6-1289,498.5-2120,594.4C5795.2,1114.5,5077.2,1131.5,4734.2,1105.9z M5846.4,443.3c215.2-68.2,375-142.7,364.3-172.6c-6.4-14.9-253.5-884.2-551.8-1930.3l-541.2-1904.8l-112.9,14.9c-230.1,27.7-664.8,176.8-664.8,228c0,10.7,245,873.5,543.3,1917.5C5181.6-362.1,5426.6,496.6,5426.6,503C5426.6,526.4,5705.8,485.9,5846.4,443.3z M4144-592.2l-6.4-315.3l-686.1-277c-377.1-151.3-690.3-283.4-698.8-289.8c-6.4-8.5,304.7-140.6,692.5-296.1l703.1-281.3v-317.5v-315.3l-270.6,112.9c-151.3,61.8-558.2,232.2-905.5,377.1l-632.8,262.1l-14.9,181.1c-14.9,179,0,545.4,25.6,673.3c10.6,61.8,40.5,76.7,888.5,430.4C3722.2-445.1,4122.7-279,4133.4-279C4141.9-279,4146.2-419.6,4144-592.2z M7312.2-647.5l873.6-366.5l14.9-85.2c21.3-112.9,27.7-683.9,8.5-769.2c-14.9-63.9-36.2-74.6-909.7-441l-894.9-372.9l6.4,319.6l6.4,319.6l696.7,279.1c383.5,155.5,690.3,287.6,681.8,294c-8.5,6.4-323.9,136.4-701,285.5l-688.2,274.8v315.4c0,172.6,6.4,315.3,17,313.2C6432.3-281.1,6830.7-447.3,7312.2-647.5z"/></g></g>
</svg>