<?xml version="1.0" standalone="no"?>
<!DOCTYPE svg PUBLIC "-//W3C//DTD SVG 20010904//EN"
 "http://www.w3.org/TR/2001/REC-SVG-20010904/DTD/svg10.dtd">
<svg version="1.0" xmlns="http://www.w3.org/2000/svg"
 width="980.000000pt" height="866.000000pt" viewBox="0 0 980.000000 866.000000"
 preserveAspectRatio="xMidYMid meet">

<g transform="translate(0.000000,866.000000) scale(0.100000,-0.100000)"
fill="#000000" stroke="none">
<path d="M553 8633 c-4 -9 -1 -47 5 -85 17 -95 15 -311 -3 -405 -37 -196 -204
-415 -407 -535 -125 -73 -138 -82 -144 -100 -11 -36 4 -41 95 -32 47 5 144 8
216 8 151 0 237 -20 363 -83 170 -86 281 -195 378 -373 51 -94 66 -113 85
-113 34 0 47 34 37 97 -18 120 -21 272 -5 354 49 260 225 494 457 609 69 34
100 62 100 91 0 36 -19 43 -79 32 -30 -5 -144 -8 -255 -6 -195 3 -203 4 -269
32 -193 81 -364 239 -456 424 -17 34 -40 71 -51 82 -24 24 -58 26 -67 3z"/>
<path d="M2467 8418 c-4 -79 -7 -197 -7 -263 0 -201 -33 -332 -135 -540 -104
-213 -243 -364 -494 -539 -185 -129 -207 -162 -124 -186 21 -6 157 -15 303
-20 264 -9 330 -16 425 -46 95 -31 290 -133 375 -198 117 -88 266 -245 338
-358 123 -190 133 -199 185 -179 43 17 50 51 36 169 -17 148 -6 368 25 505 55
236 221 506 420 678 39 35 121 95 181 134 106 69 165 122 165 149 0 7 -9 21
-20 31 -18 16 -48 19 -253 26 -420 14 -459 21 -646 110 -256 122 -444 292
-595 540 -62 103 -89 129 -136 129 l-37 0 -6 -142z"/>
<path d="M780 6785 c-10 -12 -9 -38 5 -129 27 -176 18 -332 -25 -460 -80 -237
-246 -432 -468 -549 -49 -25 -97 -55 -107 -66 -17 -19 -17 -22 0 -47 15 -23
21 -25 58 -20 233 30 419 25 540 -15 215 -72 425 -251 540 -462 33 -59 66
-111 75 -116 17 -9 56 1 65 16 3 4 -2 44 -10 88 -8 44 -15 145 -16 225 -1 167
16 246 83 386 99 204 245 347 459 449 45 21 81 44 81 50 0 27 -23 75 -35 75
-8 0 -44 -7 -82 -17 -47 -11 -112 -16 -213 -16 -175 0 -254 18 -405 92 -176
87 -321 224 -405 385 -73 139 -107 171 -140 131z"/>
<path d="M4765 5334 c-110 -5 -406 -32 -545 -50 -1557 -197 -2812 -816 -3376
-1666 -128 -193 -231 -431 -269 -623 -36 -184 -36 -515 -1 -670 78 -338 289
-697 582 -990 474 -474 1204 -860 2059 -1089 395 -106 852 -189 1190 -218 207
-17 1301 -17 1525 0 354 28 819 112 1220 222 696 191 1269 463 1740 826 153
118 435 400 537 537 186 250 310 531 360 812 20 116 12 390 -16 555 -90 525
-537 1091 -1171 1482 -799 494 -1811 793 -2895 858 -189 11 -803 20 -940 14z
m760 -624 c66 -10 160 -31 210 -45 172 -50 375 -139 375 -165 0 -5 -113 -404
-251 -887 -138 -483 -381 -1337 -540 -1898 -159 -561 -292 -1028 -295 -1039
-5 -16 -13 -17 -73 -11 -207 21 -651 160 -700 219 -9 11 2 64 49 233 65 232
1018 3579 1025 3601 6 17 61 15 200 -8z m-1485 -1083 l0 -314 -417 -168 c-555
-224 -946 -385 -957 -396 -16 -14 287 -143 1052 -448 l332 -133 0 -314 c0
-173 -3 -314 -7 -314 -5 1 -411 168 -903 373 l-894 373 -10 40 c-15 60 -13
632 2 738 7 49 18 98 23 108 21 39 236 134 1269 562 491 204 493 205 503 205
4 1 7 -140 7 -312z m3100 -25 c382 -159 751 -314 820 -343 l125 -54 13 -65 c9
-46 14 -173 15 -427 2 -424 11 -392 -123 -460 -101 -52 -1662 -713 -1682 -713
-5 0 1 390 8 517 l6 122 366 146 c599 240 1002 410 1002 424 0 4 -19 14 -42
23 -24 10 -333 134 -688 277 l-645 259 -3 274 c-2 150 0 292 3 315 l6 42 62
-23 c34 -13 375 -154 757 -314z"/>
</g>
</svg>
